<svg enable-background="new 0 0 57.6 65" viewBox="0 0 57.6 65" xmlns="http://www.w3.org/2000/svg" xmlns:xlink="http://www.w3.org/1999/xlink"><linearGradient id="a" gradientTransform="matrix(1 0 0 -1 0 187.7893)" gradientUnits="userSpaceOnUse" x1="63.1868" x2="-8.4104" y1="171.8843" y2="146.6892"><stop offset="0" stop-color="#6b53ff"/><stop offset="1" stop-color="#8d49f7"/></linearGradient><path clip-rule="evenodd" d="m57.5 27.5c-.6 8.7-7.6 16.6-16.4 16.9v-6.6c0-6-4.3-11.2-10.2-12.4l-22-4.3v-14.7c0-4 3.6-7 7.6-6.2l22.7 4.4c12.4 2.7 19.1 12.3 18.3 22.9zm-40.8 20.8-13-2.5c-1.9-.4-3.6 1.1-3.6 3v9c-.1 2.2 1.5 4.2 3.7 4.6l13 2.5c1.9.4 3.6-1.1 3.6-3v-9c.1-2.2-1.5-4.1-3.7-4.6zm13.1-17.9-19.9-3.9c-2.9-.6-5.5 1.6-5.5 4.6v9.8h.1l13 2.5c4.5.9 7.8 4.9 7.8 9.5v2l5 1c2.9.6 5.5-1.6 5.5-4.6v-13.4c.2-3.7-2.4-6.8-6-7.5z" fill="url(#a)" fill-rule="evenodd"/></svg>