<svg viewBox="0 0 256 256" xmlns="http://www.w3.org/2000/svg"><g fill="none" stroke-width="2"><path d="m241.32 68.49q-.66.68-.18 1.46c.73 1.17.81 1.73.79 3.04a.14.13-23 0 0 .23.09q.09-.09.19-.18.03-.03.03.01.01.11-.04.28a.05.05 0 0 1 -.08.03q-1.3-.9-1.65.56a1.06 1.05-13.6 0 1 -.36.58l-1.91 1.59q-.45.37-.46.96-.01.16 0 .33.01.61-.59.61-.88 0-1.7.27-.56.19-.16.63.43.46.97.4.13-.02 0-.06-.79-.24-1.21.37-.09.14-.21.02l-.23-.23a.36.36 0 0 0 -.62.25v.76a.54.53-8 0 1 -.39.51q-.6.17-.85.74-.21.45-.7.45-1.61 0-2.67 1.02-.31.3-.31.63-.01.54.66.73a.09.08 21.4 0 1 .06.12l-.14.25q-.2.38-.51.08l-.54-.54a.39.38-58 0 0 -.64.15q-.37 1.1-1.62.69a.3.3 0 0 0 -.32.48q.4.46 1.02.31.45-.11.45.36v.39a.25.25 0 0 1 -.25.25h-2.88q-.62 0-.62.62v2.2q0 .25-.24.18-1.44-.42-2.85.34-.5.28-.06.63.75.61.67 1.57-.05.51-.47.23-.91-.61-1.84-.02a.45.44 74.3 0 0 -.21.38v.5q0 .74-.6.29-.92-.7-1.53.06-.31.4-.07.84.69 1.26-.92 1.94-.44.19-.93.2-.66.02-.93.64-.18.42-.62.54-1.65.48-1.39 2.2.06.45.45.67.26.15.45.41a.37.37 0 0 1 -.3.58h-.78a.61.6-8.4 0 1 -.58-.42l-.31-.96q-.34-1.09-.66.01l-.3 1.07a.46.46 0 0 1 -.87.06q-.41-.93-1.59-.74a.63.62-5 0 0 -.52.61v.76q0 .42-.38.61-.82.41-.63 1.32.09.44-.31.64-.55.29-.89.77-.2.29-.49.1-.26-.17-.59-.03a.73.72-9 0 0 -.44.6q-.09.77-.88.96a.58.57-16.2 0 0 -.41.74q.22.68-.33.91a.29.28-11.6 0 1 -.4-.26q-.01-.32-.26-.5-.44-.32-.74.14-.69 1.08.29 1.9.55.46-.17.46h-.72q-.37 0-.55-.32-.29-.55-.9-.51-.49.04-.85-.31l-.36-.37a.53.53 0 0 0 -.78.04q-.21.25-.28.62" stroke="#7211c0"/><path d="m195.81 109.78q-20.51-20.42-40.9-40.93c-3.96-3.99-7.72-2.2-11.27 1.36q-8.04 8.08-15.95 15.97" stroke="#bc89e6"/><path d="m127.69 86.18q-.91-1.98-3.54-4.07" stroke="#9b5ecb"/><path d="m124.15 82.11q-5.55-5.72-11.53-11.57c-5.53-5.4-8.08-5.1-13.59.42q-25.17 25.2-50.37 50.38c-3.37 3.36-5.98 7.42-2.06 11.31q19.37 19.24 38.57 38.55" stroke="#ae71e0"/><path d="m85.17 171.2.87 2.28q.16.42.61.48.28.03.46.27.28.34-.14.48-1.47.49-3.02.23-.23-.04-.39.04-.16.08-.24.21-.32.47.23.62 1.42.38 2.34 1.68.07.1-.02.19l-.23.24q-.28.28-.47-.07-.69-1.28-1.36-.06a.39.38-32.3 0 1 -.72-.16q-.02-.31-.26-.5-.61-.49-.84.26-.44 1.42.75 1.75.29.08.17.36-.06.15-.19.24-.18.12-.45.04-.42-.14-.81-.43a.31.3-70.8 0 0 -.48.24q-.02.46-.14.9-.2.67-.56.07l-.37-.61a.48.48 0 0 0 -.88.15q-.04.22-.07.48-.04.27-.31.3l-2.6.34a.17.17 0 0 0 -.1.29l1.42 1.42q.18.19.39.02.26-.23.37-.58.09-.33.43-.29.19.02.27.27.19.61-.45.57-.43-.02-.46.38a.49.48-17.5 0 1 -.2.37q-.52.4-.71.14-.09-.11-.24-.15-1.5-.37-1.67.55-.09.5-.52.75l-3.53 2.03q-.45.27-.27.76.49 1.28-.93 1.99-.32.15-.61.09-.32-.07-.6-.37a.42.41-66 0 0 -.72.28v1.76q0 .41-.42.43l-3.02.14a.48.47-0 0 0 -.46.45l-.08 1.91a.45.45 0 0 1 -.73.34q-.59-.48-.37-1.27.04-.15-.11-.21-.13-.06-.26-.12a.16.15-68.8 0 0 -.22.1c-.26 1.08-.98 1.44-1.26 2.26q-.42 1.2.81 1.64a.27.27 0 0 1 .16.34q-.05.15-.16.28-.51.57-.81-.14-.33-.79-1.33-.73-.14.01-.64.62-.07.08-.12.24a.3.29 2.9 0 1 -.24.21q-.44.06-.7-.22a.44.44 0 0 0 -.77.27q-.05.74-.7 1.06-.53.25-.55.83l-.01.29q-.01.23-.19.37-.71.6-1.01.14-.24-.37-.67.56-.43.97-1.55.89a.32.32 0 0 0 -.26.53q.49.54 1.26.34.44-.11.41.34l-.02.28q-.01.14-.15.15-1.69.1-2.25.34-.84.36-.29 1.05.11.15.29.15.12 0 .25-.03 1.29-.26 0 .33-.64.29-.89 1.02-.1.27-.38.25-.16-.01-.25-.14-.42-.65-.25-.81l.31-.28q.35-.32-.11-.47l-.44-.14q-.5-.15-.71.33-.11.26-.03.49.21.59-.29.95-2.59 1.91-4.38 4.59-.2.3-.54.41-1.02.34-.85 1.46a.54.54 0 0 1 -.5.63q-1.31.06-1.03 1.33a.56.55 1.9 0 1 -.7.65q-.61-.18-.82.42-.18.5-.67.31l-1.23-.47q-.68-.27-.15.44.15.2.15.43.02.68-.66.66-.43-.01-.33-.38a.49.49 0 0 0 -.28-.59q-.69-.29-.93.07" stroke="#7211c0"/><path d="m124.15 82.11-10.07 11.33" stroke="#d0bddf"/><path d="m114.08 93.44c-2.68-2.4-6.74-8.82-10.48-5.09q-18.99 18.9-37.63 37.54a2.96 2.96 0 0 0 0 4.2q18.87 18.89 37.32 37.33c3.87 3.87 6.54-.87 9.13-3.19" stroke="#ae71e0"/><path d="m112.42 164.23 10.5 10.94" stroke="#d0bddf"/><path d="m122.92 175.17q-5.89 5.98-11.27 11.3c-3.15 3.1-7.02 4.26-10.3.93q-8.01-8.13-16.18-16.2" stroke="#a770d4"/><path d="m195.81 109.78q6.5 6.58 13.05 13.1c4.26 4.25 2.44 7.83-1.35 11.61q-25.93 25.91-51.84 51.84c-4.15 4.15-7.43 4-11.67-.23q-8.2-8.18-16.19-16.12" stroke="#b588d9"/><path d="m127.81 169.98-10.36-10.37" stroke="#ded5e5"/><path d="m117.45 159.61q-12.85-12.9-25.75-25.81c-3.23-3.23-4.63-7-1.14-10.49q13.56-13.52 26.99-27.05" stroke="#bc89e6"/><path d="m117.55 96.26 10.14-10.08" stroke="#ded5e5"/><path d="m122.92 175.17 4.89-5.19" stroke="#935dbf"/><g stroke="#9b5ecb"><path d="m117.55 96.26q-2.34-1.05-3.47-2.82"/><path d="m117.45 159.61q-2.92 1.88-5.03 4.62"/></g></g><path d="m121.89 0h11.57c45.9 2.51 86.42 27.84 107.86 68.49q-.66.68-.18 1.46c.73 1.17.81 1.73.79 3.04a.14.13-23 0 0 .23.09q.09-.09.19-.18.03-.03.03.01.01.11-.04.28a.05.05 0 0 1 -.08.03q-1.3-.9-1.65.56a1.06 1.05-13.6 0 1 -.36.58l-1.91 1.59q-.45.37-.46.96-.01.16 0 .33.01.61-.59.61-.88 0-1.7.27-.56.19-.16.63.43.46.97.4.13-.02 0-.06-.79-.24-1.21.37-.09.14-.21.02l-.23-.23a.36.36 0 0 0 -.62.25v.76a.54.53-8 0 1 -.39.51q-.6.17-.85.74-.21.45-.7.45-1.61 0-2.67 1.02-.31.3-.31.63-.01.54.66.73a.09.08 21.4 0 1 .06.12l-.14.25q-.2.38-.51.08l-.54-.54a.39.38-58 0 0 -.64.15q-.37 1.1-1.62.69a.3.3 0 0 0 -.32.48q.4.46 1.02.31.45-.11.45.36v.39a.25.25 0 0 1 -.25.25h-2.88q-.62 0-.62.62v2.2q0 .25-.24.18-1.44-.42-2.85.34-.5.28-.06.63.75.61.67 1.57-.05.51-.47.23-.91-.61-1.84-.02a.45.44 74.3 0 0 -.21.38v.5q0 .74-.6.29-.92-.7-1.53.06-.31.4-.07.84.69 1.26-.92 1.94-.44.19-.93.2-.66.02-.93.64-.18.42-.62.54-1.65.48-1.39 2.2.06.45.45.67.26.15.45.41a.37.37 0 0 1 -.3.58h-.78a.61.6-8.4 0 1 -.58-.42l-.31-.96q-.34-1.09-.66.01l-.3 1.07a.46.46 0 0 1 -.87.06q-.41-.93-1.59-.74a.63.62-5 0 0 -.52.61v.76q0 .42-.38.61-.82.41-.63 1.32.09.44-.31.64-.55.29-.89.77-.2.29-.49.1-.26-.17-.59-.03a.73.72-9 0 0 -.44.6q-.09.77-.88.96a.58.57-16.2 0 0 -.41.74q.22.68-.33.91a.29.28-11.6 0 1 -.4-.26q-.01-.32-.26-.5-.44-.32-.74.14-.69 1.08.29 1.9.55.46-.17.46h-.72q-.37 0-.55-.32-.29-.55-.9-.51-.49.04-.85-.31l-.36-.37a.53.53 0 0 0 -.78.04q-.21.25-.28.62-20.51-20.42-40.9-40.93c-3.96-3.99-7.72-2.2-11.27 1.36q-8.04 8.08-15.95 15.97-.91-1.98-3.54-4.07-5.55-5.72-11.53-11.57c-5.53-5.4-8.08-5.1-13.59.42q-25.17 25.2-50.37 50.38c-3.37 3.36-5.98 7.42-2.06 11.31q19.37 19.24 38.57 38.55l.87 2.28q.16.42.61.48.28.03.46.27.28.34-.14.48-1.47.49-3.02.23-.23-.04-.39.04-.16.08-.24.21-.32.47.23.62 1.42.38 2.34 1.68.07.1-.02.19l-.23.24q-.28.28-.47-.07-.69-1.28-1.36-.06a.39.38-32.3 0 1 -.72-.16q-.02-.31-.26-.5-.61-.49-.84.26-.44 1.42.75 1.75.29.08.17.36-.06.15-.19.24-.18.12-.45.04-.42-.14-.81-.43a.31.3-70.8 0 0 -.48.24q-.02.46-.14.9-.2.67-.56.07l-.37-.61a.48.48 0 0 0 -.88.15q-.04.22-.07.48-.04.27-.31.3l-2.6.34a.17.17 0 0 0 -.1.29l1.42 1.42q.18.19.39.02.26-.23.37-.58.09-.33.43-.29.19.02.27.27.19.61-.45.57-.43-.02-.46.38a.49.48-17.5 0 1 -.2.37q-.52.4-.71.14-.09-.11-.24-.15-1.5-.37-1.67.55-.09.5-.52.75l-3.53 2.03q-.45.27-.27.76.49 1.28-.93 1.99-.32.15-.61.09-.32-.07-.6-.37a.42.41-66 0 0 -.72.28v1.76q0 .41-.42.43l-3.02.14a.48.47-0 0 0 -.46.45l-.08 1.91a.45.45 0 0 1 -.73.34q-.59-.48-.37-1.27.04-.15-.11-.21-.13-.06-.26-.12a.16.15-68.8 0 0 -.22.1c-.26 1.08-.98 1.44-1.26 2.26q-.42 1.2.81 1.64a.27.27 0 0 1 .16.34q-.05.15-.16.28-.51.57-.81-.14-.33-.79-1.33-.73-.14.01-.64.62-.07.08-.12.24a.3.29 2.9 0 1 -.24.21q-.44.06-.7-.22a.44.44 0 0 0 -.77.27q-.05.74-.7 1.06-.53.25-.55.83l-.01.29q-.01.23-.19.37-.71.6-1.01.14-.24-.37-.67.56-.43.97-1.55.89a.32.32 0 0 0 -.26.53q.49.54 1.26.34.44-.11.41.34l-.02.28q-.01.14-.15.15-1.69.1-2.25.34-.84.36-.29 1.05.11.15.29.15.12 0 .25-.03 1.29-.26 0 .33-.64.29-.89 1.02-.1.27-.38.25-.16-.01-.25-.14-.42-.65-.25-.81l.31-.28q.35-.32-.11-.47l-.44-.14q-.5-.15-.71.33-.11.26-.03.49.21.59-.29.95-2.59 1.91-4.38 4.59-.2.3-.54.41-1.02.34-.85 1.46a.54.54 0 0 1 -.5.63q-1.31.06-1.03 1.33a.56.55 1.9 0 1 -.7.65q-.61-.18-.82.42-.18.5-.67.31l-1.23-.47q-.68-.27-.15.44.15.2.15.43.02.68-.66.66-.43-.01-.33-.38a.49.49 0 0 0 -.28-.59q-.69-.29-.93.07-33.32-35.33-35.79-84.19v-9.39c3.62-67.41 54.49-118.97 121.89-123.24z" fill="#7912cc"/><path d="m124.15 82.11-10.07 11.33c-2.68-2.4-6.74-8.82-10.48-5.09q-18.99 18.9-37.63 37.54a2.96 2.96 0 0 0 0 4.2q18.87 18.89 37.32 37.33c3.87 3.87 6.54-.87 9.13-3.19l10.5 10.94q-5.89 5.98-11.27 11.3c-3.15 3.1-7.02 4.26-10.3.93q-8.01-8.13-16.18-16.2-19.2-19.31-38.57-38.55c-3.92-3.89-1.31-7.95 2.06-11.31q25.2-25.18 50.37-50.38c5.51-5.52 8.06-5.82 13.59-.42q5.98 5.85 11.53 11.57z" fill="#e3cff4"/><path d="m195.81 109.78q6.5 6.58 13.05 13.1c4.26 4.25 2.44 7.83-1.35 11.61q-25.93 25.91-51.84 51.84c-4.15 4.15-7.43 4-11.67-.23q-8.2-8.18-16.19-16.12l-10.36-10.37q-12.85-12.9-25.75-25.81c-3.23-3.23-4.63-7-1.14-10.49q13.56-13.52 26.99-27.05l10.14-10.08q7.91-7.89 15.95-15.97c3.55-3.56 7.31-5.35 11.27-1.36q20.39 20.51 40.9 40.93z" fill="#fff"/><path d="m241.32 68.49q11.38 21.63 13.84 46.02.38 3.69.84 7.37v10.85c-3.13 67.22-55.59 120.22-123.38 123.27h-10.84q-47.55-3.05-81.95-35.33-2.03-1.9-4.04-3.85.24-.36.93-.07a.49.49 0 0 1 .28.59q-.1.37.33.38.68.02.66-.66 0-.23-.15-.43-.53-.71.15-.44l1.23.47q.49.19.67-.31.21-.6.82-.42a.56.55 1.9 0 0 .7-.65q-.28-1.27 1.03-1.33a.54.54 0 0 0 .5-.63q-.17-1.12.85-1.46.34-.11.54-.41 1.79-2.68 4.38-4.59.5-.36.29-.95-.08-.23.03-.49.21-.48.71-.33l.44.14q.46.15.11.47l-.31.28q-.17.16.25.81.09.13.25.14.28.02.38-.25.25-.73.89-1.02 1.29-.59 0-.33-.13.03-.25.03-.18 0-.29-.15-.55-.69.29-1.05.56-.24 2.25-.34.14-.01.15-.15l.02-.28q.03-.45-.41-.34-.77.2-1.26-.34a.32.32 0 0 1 .26-.53q1.12.08 1.55-.89.43-.93.67-.56.3.46 1.01-.14.18-.14.19-.37l.01-.29q.02-.58.55-.83.65-.32.7-1.06a.44.44 0 0 1 .77-.27q.26.28.7.22a.3.29 2.9 0 0 .24-.21q.05-.16.12-.24.5-.61.64-.62 1-.06 1.33.73.3.71.81.14.11-.13.16-.28a.27.27 0 0 0 -.16-.34q-1.23-.44-.81-1.64c.28-.82 1-1.18 1.26-2.26a.16.15-68.8 0 1 .22-.1q.13.06.26.12.15.06.11.21-.22.79.37 1.27a.45.45 0 0 0 .73-.34l.08-1.91a.48.47-0 0 1 .46-.45l3.02-.14q.42-.02.42-.43v-1.76a.42.41-66 0 1 .72-.28q.28.3.6.37.29.06.61-.09 1.42-.71.93-1.99-.18-.49.27-.76l3.53-2.03q.43-.25.52-.75.17-.92 1.67-.55.15.04.24.15.19.26.71-.14a.49.48-17.5 0 0 .2-.37q.03-.4.46-.38.64.04.45-.57-.08-.25-.27-.27-.34-.04-.43.29-.11.35-.37.58-.21.17-.39-.02l-1.42-1.42a.17.17 0 0 1 .1-.29l2.6-.34q.27-.03.31-.3.03-.26.07-.48a.48.48 0 0 1 .88-.15l.37.61q.36.6.56-.07.12-.44.14-.9a.31.3-70.8 0 1 .48-.24q.39.29.81.43.27.08.45-.04.13-.09.19-.24.12-.28-.17-.36-1.19-.33-.75-1.75.23-.75.84-.26.24.19.26.5a.39.38-32.3 0 0 .72.16q.67-1.22 1.36.06.19.35.47.07l.23-.24q.09-.09.02-.19-.92-1.3-2.34-1.68-.55-.15-.23-.62.08-.13.24-.21.16-.08.39-.04 1.55.26 3.02-.23.42-.14.14-.48-.18-.24-.46-.27-.45-.06-.61-.48l-.87-2.28q8.17 8.07 16.18 16.2c3.28 3.33 7.15 2.17 10.3-.93q5.38-5.32 11.27-11.3l4.89-5.19q7.99 7.94 16.19 16.12c4.24 4.23 7.52 4.38 11.67.23q25.91-25.93 51.84-51.84c3.79-3.78 5.61-7.36 1.35-11.61q-6.55-6.52-13.05-13.1.07-.37.28-.62a.53.53 0 0 1 .78-.04l.36.37q.36.35.85.31.61-.04.9.51.18.32.55.32h.72q.72 0 .17-.46-.98-.82-.29-1.9.3-.46.74-.14.25.18.26.5a.29.28-11.6 0 0 .4.26q.55-.23.33-.91a.58.57-16.2 0 1 .41-.74q.79-.19.88-.96a.73.72-9 0 1 .44-.6q.33-.14.59.03.29.19.49-.1.34-.48.89-.77.4-.2.31-.64-.19-.91.63-1.32.38-.19.38-.61v-.76a.63.62-5 0 1 .52-.61q1.18-.19 1.59.74a.46.46 0 0 0 .87-.06l.3-1.07q.32-1.1.66-.01l.31.96a.61.6-8.4 0 0 .58.42h.78a.37.37 0 0 0 .3-.58q-.19-.26-.45-.41-.39-.22-.45-.67-.26-1.72 1.39-2.2.44-.12.62-.54.27-.62.93-.64.49-.01.93-.2 1.61-.68.92-1.94-.24-.44.07-.84.61-.76 1.53-.06.6.45.6-.29v-.5a.45.44 74.3 0 1 .21-.38q.93-.59 1.84.02.42.28.47-.23.08-.96-.67-1.57-.44-.35.06-.63 1.41-.76 2.85-.34.24.07.24-.18v-2.2q0-.62.62-.62h2.88a.25.25 0 0 0 .25-.25v-.39q0-.47-.45-.36-.62.15-1.02-.31a.3.3 0 0 1 .32-.48q1.25.41 1.62-.69a.39.38-58 0 1 .64-.15l.54.54q.31.3.51-.08l.14-.25a.09.08 21.4 0 0 -.06-.12q-.67-.19-.66-.73 0-.33.31-.63 1.06-1.02 2.67-1.02.49 0 .7-.45.25-.57.85-.74a.54.53-8 0 0 .39-.51v-.76a.36.36 0 0 1 .62-.25l.23.23q.12.12.21-.02.42-.61 1.21-.37.13.04 0 .06-.54.06-.97-.4-.4-.44.16-.63.82-.27 1.7-.27.6 0 .59-.61-.01-.17 0-.33.01-.59.46-.96l1.91-1.59a1.06 1.05-13.6 0 0 .36-.58q.35-1.46 1.65-.56a.05.05 0 0 0 .08-.03q.05-.17.04-.28 0-.04-.03-.01-.1.09-.19.18a.14.13-23 0 1 -.23-.09c.02-1.31-.06-1.87-.79-3.04q-.48-.78.18-1.46z" fill="#6a10b3"/><path d="m124.15 82.11q2.63 2.09 3.54 4.07l-10.14 10.08q-2.34-1.05-3.47-2.82z" fill="#bcaaca"/><path d="m114.08 93.44q1.13 1.77 3.47 2.82-13.43 13.53-26.99 27.05c-3.49 3.49-2.09 7.26 1.14 10.49q12.9 12.91 25.75 25.81-2.92 1.88-5.03 4.62c-2.59 2.32-5.26 7.06-9.13 3.19q-18.45-18.44-37.32-37.33a2.96 2.96 0 0 1 0-4.2q18.64-18.64 37.63-37.54c3.74-3.73 7.8 2.69 10.48 5.09z" fill="#7912cc"/><path d="m117.45 159.61 10.36 10.37-4.89 5.19-10.5-10.94q2.11-2.74 5.03-4.62z" fill="#bcaaca"/></svg>